<mxfile host="app.diagrams.net" modified="2024-07-22T18:19:00.313Z" agent="Mozilla/5.0 (X11; Linux x86_64) AppleWebKit/537.36 (KHTML, like Gecko) Chrome/126.0.0.0 Safari/537.36" version="24.7.1" etag="L00naBS_CeBPM_ZAQYdo" type="github">
  <diagram name="Page-1" id="lV40iSaLGWkwq5J8a7qe">
    <mxGraphModel>
      <root>
        <mxCell id="0" />
        <mxCell id="1" parent="0" />
      </root>
    </mxGraphModel>
  </diagram>
</mxfile>
